<svg width="33" height="25" viewBox="0 0 33 25" fill="none" xmlns="http://www.w3.org/2000/svg">
<path d="M8.44017 14.0741C8.38542 15.0939 8.73553 16.0942 9.41437 16.8573C10.0932 17.6204 11.0459 18.0846 12.0652 18.1491C13.0823 18.0815 14.0317 17.6159 14.7079 16.8531C15.3841 16.0904 15.7325 15.0919 15.6777 14.0741C15.7326 13.0549 15.3846 12.0551 14.7087 11.2903C14.0328 10.5256 13.0833 10.0573 12.0652 9.98657C11.0448 10.0542 10.0921 10.5211 9.41358 11.2862C8.73505 12.0513 8.38532 13.0529 8.44017 14.0741ZM13.1777 14.0741C13.1777 14.9241 12.6652 15.6491 12.0652 15.6491C11.4652 15.6491 10.9402 14.9241 10.9402 14.0741C10.9402 13.2241 11.4527 12.4866 12.0652 12.4866C12.6777 12.4866 13.1777 13.2116 13.1777 14.0741ZM20.2652 9.98657C19.247 10.0573 18.2975 10.5256 17.6216 11.2903C16.9457 12.0551 16.5977 13.0549 16.6527 14.0741C16.5978 15.0919 16.9462 16.0904 17.6224 16.8531C18.2986 17.6159 19.2481 18.0815 20.2652 18.1491C21.2845 18.0846 22.2371 17.6204 22.916 16.8573C23.5948 16.0942 23.9449 15.0939 23.8902 14.0741C23.945 13.0529 23.5953 12.0513 22.9168 11.2862C22.2382 10.5211 21.2856 10.0542 20.2652 9.98657ZM20.2652 15.6491C19.6652 15.6491 19.1527 14.9241 19.1527 14.0741C19.1527 13.2241 19.6652 12.4866 20.2652 12.4866C20.8652 12.4866 21.3902 13.2116 21.3902 14.0741C21.3902 14.9366 20.8777 15.6491 20.2652 15.6491Z" fill="black"/>
<path d="M29.4525 5.47413L29.365 5.36163C29.365 5.36163 29.365 5.27413 29.365 5.23663C27.1952 2.60134 24.2008 0.773901 20.865 0.049128C20.7034 0.00242856 20.534 -0.0111679 20.3671 0.00915351C20.2001 0.029475 20.0389 0.0832963 19.8932 0.167393C19.7475 0.251489 19.6203 0.364129 19.5191 0.498567C19.418 0.633004 19.345 0.786471 19.3046 0.949775C19.2642 1.11308 19.2572 1.28286 19.284 1.44894C19.3108 1.61502 19.3708 1.774 19.4605 1.91633C19.5501 2.05866 19.6676 2.18143 19.8059 2.27728C19.9441 2.37312 20.1003 2.44008 20.265 2.47413C23.0235 3.06553 25.5076 4.55599 27.3275 6.71163C29.0136 10.5811 29.8939 14.7534 29.915 18.9741C28.1742 20.5978 26.0058 21.6907 23.665 22.1241V21.5866C23.665 21.5866 23.665 21.5241 23.665 21.4866C25.206 20.8888 26.6507 20.0675 27.9525 19.0491C28.2128 18.8419 28.3801 18.5398 28.4176 18.2093C28.4551 17.8788 28.3597 17.5469 28.1525 17.2866C27.9453 17.0264 27.6432 16.8591 27.3127 16.8216C26.9822 16.7841 26.6503 16.8794 26.39 17.0866C23.4559 19.3117 19.8454 20.4593 16.165 20.3366C12.5144 20.4392 8.93809 19.2926 6.02754 17.0866C5.89868 16.984 5.75088 16.9078 5.59257 16.8624C5.43425 16.8169 5.26854 16.803 5.10487 16.8216C4.77434 16.8591 4.47224 17.0264 4.26504 17.2866C4.05784 17.5469 3.96251 17.8788 4.00002 18.2093C4.03753 18.5398 4.2048 18.8419 4.46504 19.0491C5.75802 20.0672 7.19437 20.8886 8.72754 21.4866V22.1241C6.38676 21.6907 4.21842 20.5978 2.47754 18.9741C2.50653 14.7516 3.39544 10.5793 5.09004 6.71163C6.90998 4.55599 9.39407 3.06553 12.1525 2.47413C12.463 2.38443 12.7266 2.17799 12.8882 1.89812C13.0497 1.61826 13.0966 1.28671 13.019 0.97303C12.9413 0.659351 12.7453 0.387914 12.4719 0.215661C12.1985 0.0434078 11.869 -0.0162765 11.5525 0.049128C8.21674 0.773901 5.22237 2.60134 3.05254 5.23663C3.05254 5.23663 3.05254 5.32413 3.05254 5.36163L2.96504 5.47413C0.540043 10.4741 0.265043 15.0366 0.002543 19.3991C-0.00876216 19.5761 0.0177143 19.7534 0.0802141 19.9194C0.142714 20.0853 0.239806 20.2361 0.365043 20.3616C2.90558 22.9509 6.29835 24.5318 9.91504 24.8116C10.243 24.8102 10.5572 24.6801 10.79 24.4491C10.9082 24.3334 11.0021 24.1953 11.0665 24.043C11.1309 23.8906 11.1644 23.727 11.165 23.5616V22.3116C14.454 23.081 17.8761 23.081 21.165 22.3116V23.5616C21.1657 23.727 21.1992 23.8906 21.2636 24.043C21.328 24.1953 21.4219 24.3334 21.54 24.4491C21.7729 24.6801 22.0871 24.8102 22.415 24.8116C26.0673 24.5783 29.5083 23.0179 32.09 20.4241C32.2153 20.2986 32.3124 20.1478 32.3749 19.9819C32.4374 19.8159 32.4639 19.6386 32.4525 19.4616C32.1525 15.0366 31.8775 10.5241 29.4525 5.47413Z" fill="black"/>
<path d="M25.5277 6.96166C25.6035 6.81563 25.6498 6.65607 25.6638 6.49212C25.6778 6.32818 25.6593 6.16308 25.6094 6.0063C25.5594 5.84952 25.479 5.70414 25.3728 5.5785C25.2665 5.45287 25.1365 5.34944 24.9902 5.27416C22.2375 3.96208 19.2136 3.3196 16.1652 3.39916C13.1169 3.3196 10.0929 3.96208 7.34022 5.27416C7.19391 5.34944 7.0639 5.45287 6.95765 5.5785C6.8514 5.70414 6.77101 5.84952 6.72107 6.0063C6.67113 6.16308 6.65264 6.32818 6.66665 6.49212C6.68066 6.65607 6.72691 6.81563 6.80273 6.96166C6.95695 7.25499 7.22135 7.47507 7.53779 7.57352C7.85423 7.67197 8.19681 7.64073 8.49022 7.48666C10.8893 6.36473 13.518 5.821 16.1652 5.89916C18.8125 5.821 21.4412 6.36473 23.8402 7.48666C24.017 7.58216 24.2143 7.63361 24.4152 7.63666C24.6448 7.63714 24.87 7.57441 25.0662 7.45534C25.2625 7.33627 25.4221 7.16547 25.5277 6.96166Z" fill="black"/>
</svg>
