<svg width="282" height="31" viewBox="0 0 282 31" fill="none" xmlns="http://www.w3.org/2000/svg">
<circle cx="8" cy="8" r="8" fill="#D24E50"/>
<circle cx="274" cy="8" r="8" fill="#3CD397"/>
<rect x="8" y="6" width="266" height="4" fill="url(#paint0_linear_213_356)"/>
<rect x="215" width="4" height="16" fill="#5BB889"/>
<path d="M184.847 28.1534C184.432 28.1534 184.055 28.0753 183.717 27.919C183.379 27.7599 183.111 27.5312 182.912 27.233C182.713 26.9318 182.614 26.5682 182.614 26.142C182.614 25.767 182.688 25.4631 182.835 25.2301C182.983 24.9943 183.18 24.8097 183.428 24.6761C183.675 24.5426 183.947 24.4432 184.246 24.3778C184.547 24.3097 184.849 24.2557 185.153 24.2159C185.551 24.1648 185.874 24.1264 186.121 24.1009C186.371 24.0724 186.553 24.0256 186.666 23.9602C186.783 23.8949 186.841 23.7812 186.841 23.6193V23.5852C186.841 23.1648 186.726 22.8381 186.496 22.6051C186.268 22.3722 185.923 22.2557 185.46 22.2557C184.98 22.2557 184.604 22.3608 184.331 22.571C184.058 22.7812 183.866 23.0057 183.756 23.2443L182.801 22.9034C182.972 22.5057 183.199 22.196 183.483 21.9744C183.77 21.75 184.082 21.5937 184.42 21.5057C184.761 21.4148 185.097 21.3693 185.426 21.3693C185.636 21.3693 185.878 21.3949 186.151 21.446C186.426 21.4943 186.692 21.5952 186.947 21.7486C187.206 21.902 187.42 22.1335 187.591 22.4432C187.761 22.7528 187.847 23.1676 187.847 23.6875V28H186.841V27.1136H186.79C186.722 27.2557 186.608 27.4077 186.449 27.5696C186.29 27.7315 186.078 27.8693 185.814 27.983C185.55 28.0966 185.227 28.1534 184.847 28.1534ZM185 27.25C185.398 27.25 185.733 27.1719 186.006 27.0156C186.281 26.8594 186.489 26.6577 186.628 26.4105C186.77 26.1634 186.841 25.9034 186.841 25.6307V24.7102C186.798 24.7614 186.705 24.8082 186.56 24.8509C186.418 24.8906 186.253 24.9261 186.065 24.9574C185.881 24.9858 185.7 25.0114 185.524 25.0341C185.351 25.054 185.21 25.071 185.102 25.0852C184.841 25.1193 184.597 25.1747 184.369 25.2514C184.145 25.3253 183.963 25.4375 183.824 25.5881C183.688 25.7358 183.619 25.9375 183.619 26.1932C183.619 26.5426 183.749 26.8068 184.007 26.9858C184.268 27.1619 184.599 27.25 185 27.25ZM194.8 21.4545L192.38 28H191.357L188.936 21.4545H190.027L191.834 26.6705H191.902L193.709 21.4545H194.8ZM197.854 28.1534C197.44 28.1534 197.063 28.0753 196.725 27.919C196.387 27.7599 196.119 27.5312 195.92 27.233C195.721 26.9318 195.621 26.5682 195.621 26.142C195.621 25.767 195.695 25.4631 195.843 25.2301C195.991 24.9943 196.188 24.8097 196.435 24.6761C196.683 24.5426 196.955 24.4432 197.254 24.3778C197.555 24.3097 197.857 24.2557 198.161 24.2159C198.559 24.1648 198.881 24.1264 199.129 24.1009C199.379 24.0724 199.56 24.0256 199.674 23.9602C199.79 23.8949 199.849 23.7812 199.849 23.6193V23.5852C199.849 23.1648 199.734 22.8381 199.504 22.6051C199.276 22.3722 198.931 22.2557 198.468 22.2557C197.988 22.2557 197.612 22.3608 197.339 22.571C197.066 22.7812 196.874 23.0057 196.763 23.2443L195.809 22.9034C195.979 22.5057 196.207 22.196 196.491 21.9744C196.778 21.75 197.09 21.5937 197.428 21.5057C197.769 21.4148 198.104 21.3693 198.434 21.3693C198.644 21.3693 198.886 21.3949 199.158 21.446C199.434 21.4943 199.7 21.5952 199.955 21.7486C200.214 21.902 200.428 22.1335 200.599 22.4432C200.769 22.7528 200.854 23.1676 200.854 23.6875V28H199.849V27.1136H199.798C199.729 27.2557 199.616 27.4077 199.457 27.5696C199.298 27.7315 199.086 27.8693 198.822 27.983C198.558 28.0966 198.235 28.1534 197.854 28.1534ZM198.008 27.25C198.406 27.25 198.741 27.1719 199.013 27.0156C199.289 26.8594 199.496 26.6577 199.636 26.4105C199.778 26.1634 199.849 25.9034 199.849 25.6307V24.7102C199.806 24.7614 199.712 24.8082 199.567 24.8509C199.425 24.8906 199.261 24.9261 199.073 24.9574C198.888 24.9858 198.708 25.0114 198.532 25.0341C198.359 25.054 198.218 25.071 198.11 25.0852C197.849 25.1193 197.604 25.1747 197.377 25.2514C197.153 25.3253 196.971 25.4375 196.832 25.5881C196.695 25.7358 196.627 25.9375 196.627 26.1932C196.627 26.5426 196.756 26.8068 197.015 26.9858C197.276 27.1619 197.607 27.25 198.008 27.25ZM203.696 24.0625V28H202.69V21.4545H203.662V22.4773H203.747C203.9 22.1449 204.133 21.8778 204.446 21.6761C204.758 21.4716 205.162 21.3693 205.656 21.3693C206.099 21.3693 206.487 21.4602 206.819 21.642C207.152 21.821 207.41 22.0938 207.595 22.4602C207.779 22.8239 207.872 23.2841 207.872 23.8409V28H206.866V23.9091C206.866 23.3949 206.733 22.9943 206.466 22.7074C206.199 22.4176 205.832 22.2727 205.366 22.2727C205.045 22.2727 204.758 22.3423 204.505 22.4815C204.255 22.6207 204.058 22.8239 203.913 23.0909C203.768 23.358 203.696 23.6818 203.696 24.0625ZM209.522 28V27.233L213.238 22.4602V22.392H209.641V21.4545H214.533V22.2557L210.92 26.9943V27.0625H214.653V28H209.522ZM218.128 28.1534C217.713 28.1534 217.337 28.0753 216.999 27.919C216.661 27.7599 216.392 27.5312 216.193 27.233C215.994 26.9318 215.895 26.5682 215.895 26.142C215.895 25.767 215.969 25.4631 216.116 25.2301C216.264 24.9943 216.462 24.8097 216.709 24.6761C216.956 24.5426 217.229 24.4432 217.527 24.3778C217.828 24.3097 218.131 24.2557 218.435 24.2159C218.832 24.1648 219.155 24.1264 219.402 24.1009C219.652 24.0724 219.834 24.0256 219.947 23.9602C220.064 23.8949 220.122 23.7812 220.122 23.6193V23.5852C220.122 23.1648 220.007 22.8381 219.777 22.6051C219.55 22.3722 219.205 22.2557 218.741 22.2557C218.261 22.2557 217.885 22.3608 217.612 22.571C217.339 22.7812 217.148 23.0057 217.037 23.2443L216.082 22.9034C216.253 22.5057 216.48 22.196 216.764 21.9744C217.051 21.75 217.364 21.5937 217.702 21.5057C218.043 21.4148 218.378 21.3693 218.707 21.3693C218.918 21.3693 219.159 21.3949 219.432 21.446C219.707 21.4943 219.973 21.5952 220.229 21.7486C220.487 21.902 220.702 22.1335 220.872 22.4432C221.043 22.7528 221.128 23.1676 221.128 23.6875V28H220.122V27.1136H220.071C220.003 27.2557 219.889 27.4077 219.73 27.5696C219.571 27.7315 219.359 27.8693 219.095 27.983C218.831 28.0966 218.509 28.1534 218.128 28.1534ZM218.281 27.25C218.679 27.25 219.014 27.1719 219.287 27.0156C219.563 26.8594 219.77 26.6577 219.909 26.4105C220.051 26.1634 220.122 25.9034 220.122 25.6307V24.7102C220.08 24.7614 219.986 24.8082 219.841 24.8509C219.699 24.8906 219.534 24.9261 219.347 24.9574C219.162 24.9858 218.982 25.0114 218.805 25.0341C218.632 25.054 218.491 25.071 218.384 25.0852C218.122 25.1193 217.878 25.1747 217.651 25.2514C217.426 25.3253 217.244 25.4375 217.105 25.5881C216.969 25.7358 216.901 25.9375 216.901 26.1932C216.901 26.5426 217.03 26.8068 217.288 26.9858C217.55 27.1619 217.881 27.25 218.281 27.25ZM225.81 21.4545V22.3068H222.418V21.4545H225.81ZM223.407 19.8864H224.412V26.125C224.412 26.4091 224.453 26.6222 224.536 26.7642C224.621 26.9034 224.729 26.9972 224.86 27.0455C224.993 27.0909 225.134 27.1136 225.282 27.1136C225.392 27.1136 225.483 27.108 225.554 27.0966C225.625 27.0824 225.682 27.071 225.725 27.0625L225.929 27.9659C225.861 27.9915 225.766 28.017 225.644 28.0426C225.522 28.071 225.367 28.0852 225.179 28.0852C224.895 28.0852 224.617 28.0241 224.344 27.902C224.074 27.7798 223.85 27.5938 223.671 27.3438C223.495 27.0938 223.407 26.7784 223.407 26.3977V19.8864ZM229.912 28.1364C229.321 28.1364 228.802 27.9957 228.356 27.7145C227.913 27.4332 227.566 27.0398 227.316 26.5341C227.069 26.0284 226.946 25.4375 226.946 24.7614C226.946 24.0795 227.069 23.4844 227.316 22.9759C227.566 22.4673 227.913 22.0724 228.356 21.7912C228.802 21.5099 229.321 21.3693 229.912 21.3693C230.502 21.3693 231.02 21.5099 231.463 21.7912C231.909 22.0724 232.255 22.4673 232.502 22.9759C232.752 23.4844 232.877 24.0795 232.877 24.7614C232.877 25.4375 232.752 26.0284 232.502 26.5341C232.255 27.0398 231.909 27.4332 231.463 27.7145C231.02 27.9957 230.502 28.1364 229.912 28.1364ZM229.912 27.233C230.36 27.233 230.73 27.1179 231.02 26.8878C231.309 26.6577 231.524 26.3551 231.663 25.9801C231.802 25.6051 231.872 25.1989 231.872 24.7614C231.872 24.3239 231.802 23.9162 231.663 23.5384C231.524 23.1605 231.309 22.8551 231.02 22.6222C230.73 22.3892 230.36 22.2727 229.912 22.2727C229.463 22.2727 229.093 22.3892 228.804 22.6222C228.514 22.8551 228.299 23.1605 228.16 23.5384C228.021 23.9162 227.951 24.3239 227.951 24.7614C227.951 25.1989 228.021 25.6051 228.16 25.9801C228.299 26.3551 228.514 26.6577 228.804 26.8878C229.093 27.1179 229.463 27.233 229.912 27.233ZM244.947 22H243.89C243.827 21.696 243.718 21.429 243.562 21.1989C243.408 20.9688 243.221 20.7756 242.999 20.6193C242.781 20.4602 242.538 20.3409 242.271 20.2614C242.004 20.1818 241.725 20.142 241.435 20.142C240.907 20.142 240.428 20.2756 239.999 20.5426C239.573 20.8097 239.234 21.2031 238.981 21.723C238.731 22.2429 238.606 22.8807 238.606 23.6364C238.606 24.392 238.731 25.0298 238.981 25.5497C239.234 26.0696 239.573 26.4631 239.999 26.7301C240.428 26.9972 240.907 27.1307 241.435 27.1307C241.725 27.1307 242.004 27.0909 242.271 27.0114C242.538 26.9318 242.781 26.8139 242.999 26.6577C243.221 26.4986 243.408 26.304 243.562 26.0739C243.718 25.8409 243.827 25.5739 243.89 25.2727H244.947C244.867 25.7187 244.722 26.1179 244.512 26.4702C244.302 26.8224 244.04 27.1222 243.728 27.3693C243.415 27.6136 243.065 27.7997 242.675 27.9276C242.289 28.0554 241.876 28.1193 241.435 28.1193C240.691 28.1193 240.029 27.9375 239.45 27.5739C238.87 27.2102 238.414 26.6932 238.082 26.0227C237.749 25.3523 237.583 24.5568 237.583 23.6364C237.583 22.7159 237.749 21.9205 238.082 21.25C238.414 20.5795 238.87 20.0625 239.45 19.6989C240.029 19.3352 240.691 19.1534 241.435 19.1534C241.876 19.1534 242.289 19.2173 242.675 19.3452C243.065 19.473 243.415 19.6605 243.728 19.9077C244.04 20.152 244.302 20.4503 244.512 20.8026C244.722 21.152 244.867 21.5511 244.947 22ZM249.569 19.2727V28H248.512V20.3807H248.461L246.331 21.7955V20.7216L248.512 19.2727H249.569Z" fill="white"/>
<defs>
<linearGradient id="paint0_linear_213_356" x1="8" y1="8.00005" x2="274" y2="8.00016" gradientUnits="userSpaceOnUse">
<stop stop-color="#D24E50"/>
<stop offset="1" stop-color="#3CD397"/>
</linearGradient>
</defs>
</svg>
