<svg width="34" height="33" viewBox="0 0 34 33" fill="none" xmlns="http://www.w3.org/2000/svg">
<path d="M16.6667 0C12.7092 0.000164109 8.88082 1.40852 5.86665 3.97308C2.85249 6.53764 0.849214 10.091 0.215267 13.9975C-0.418679 17.9039 0.358075 21.9085 2.40654 25.2946C4.45501 28.6807 7.64152 31.2275 11.3959 32.4791C12.2292 32.625 12.5417 32.125 12.5417 31.6875C12.5417 31.2917 12.5209 29.9791 12.5209 28.5833C8.33338 29.3541 7.25005 27.5625 6.91671 26.625C6.54684 25.7133 5.9605 24.9052 5.20838 24.2708C4.62505 23.9583 3.79171 23.1875 5.18753 23.1667C5.72051 23.2245 6.23169 23.41 6.67776 23.7074C7.12384 24.0047 7.49165 24.4053 7.75005 24.875C7.978 25.2845 8.28451 25.645 8.65203 25.9358C9.01954 26.2266 9.44084 26.4421 9.89177 26.5698C10.3427 26.6976 10.8144 26.7351 11.2798 26.6802C11.7453 26.6253 12.1953 26.4791 12.6042 26.25C12.6763 25.4027 13.0539 24.6105 13.6667 24.0209C9.95838 23.6042 6.08338 22.1666 6.08338 15.7917C6.05996 14.1353 6.67119 12.5327 7.79171 11.3125C7.28218 9.87292 7.3418 8.29302 7.95838 6.89588C7.95838 6.89588 9.35416 6.45837 12.5417 8.60422C15.2689 7.85417 18.1479 7.85417 20.875 8.60422C24.0625 6.43755 25.4584 6.89588 25.4584 6.89588C26.075 8.293 26.1347 9.87293 25.625 11.3125C26.7489 12.5306 27.3607 14.1346 27.3334 15.7917C27.3334 22.1875 23.4375 23.6042 19.7292 24.0209C20.127 24.424 20.4333 24.908 20.6274 25.4401C20.8215 25.9721 20.8989 26.5396 20.8542 27.1042C20.8542 29.3334 20.8334 31.125 20.8334 31.6875C20.8334 32.1251 21.1459 32.6459 21.9792 32.4792C25.727 31.2173 28.9043 28.6646 30.9441 25.2767C32.9838 21.8889 33.7532 17.8864 33.1148 13.9837C32.4765 10.0811 30.472 6.53229 27.4592 3.97085C24.4463 1.40942 20.6212 0.00205818 16.6667 0Z" fill="black"/>
</svg>
