<svg width="282" height="31" viewBox="0 0 282 31" fill="none" xmlns="http://www.w3.org/2000/svg">
<ellipse cx="8" cy="8.5" rx="8" ry="7.5" fill="#D24E50"/>
<ellipse cx="274" cy="8.5" rx="8" ry="7.5" fill="#3CD397"/>
<rect x="8" y="6" width="266" height="4" fill="url(#paint0_linear_213_357)"/>
<rect x="262" width="4" height="16" fill="#44CD94"/>
<path d="M212.92 28V21.4545H213.892V22.4773H213.977C214.114 22.1278 214.334 21.8565 214.638 21.6634C214.942 21.4673 215.307 21.3693 215.733 21.3693C216.165 21.3693 216.524 21.4673 216.811 21.6634C217.101 21.8565 217.327 22.1278 217.489 22.4773H217.557C217.724 22.1392 217.976 21.8707 218.311 21.6719C218.646 21.4702 219.048 21.3693 219.517 21.3693C220.102 21.3693 220.581 21.5526 220.953 21.919C221.325 22.2827 221.511 22.8494 221.511 23.6193V28H220.506V23.6193C220.506 23.1364 220.374 22.7912 220.109 22.5838C219.845 22.3764 219.534 22.2727 219.176 22.2727C218.716 22.2727 218.359 22.4119 218.107 22.6903C217.854 22.9659 217.727 23.3153 217.727 23.7386V28H216.705V23.517C216.705 23.1449 216.584 22.8452 216.342 22.6179C216.101 22.3878 215.79 22.2727 215.409 22.2727C215.148 22.2727 214.903 22.3423 214.676 22.4815C214.452 22.6207 214.27 22.8139 214.131 23.0611C213.994 23.3054 213.926 23.5881 213.926 23.9091V28H212.92ZM225.276 28.1534C224.862 28.1534 224.485 28.0753 224.147 27.919C223.809 27.7599 223.54 27.5312 223.342 27.233C223.143 26.9318 223.043 26.5682 223.043 26.142C223.043 25.767 223.117 25.4631 223.265 25.2301C223.413 24.9943 223.61 24.8097 223.857 24.6761C224.104 24.5426 224.377 24.4432 224.675 24.3778C224.977 24.3097 225.279 24.2557 225.583 24.2159C225.981 24.1648 226.303 24.1264 226.55 24.1009C226.8 24.0724 226.982 24.0256 227.096 23.9602C227.212 23.8949 227.271 23.7812 227.271 23.6193V23.5852C227.271 23.1648 227.156 22.8381 226.925 22.6051C226.698 22.3722 226.353 22.2557 225.89 22.2557C225.41 22.2557 225.033 22.3608 224.761 22.571C224.488 22.7812 224.296 23.0057 224.185 23.2443L223.231 22.9034C223.401 22.5057 223.629 22.196 223.913 21.9744C224.2 21.75 224.512 21.5937 224.85 21.5057C225.191 21.4148 225.526 21.3693 225.856 21.3693C226.066 21.3693 226.308 21.3949 226.58 21.446C226.856 21.4943 227.121 21.5952 227.377 21.7486C227.636 21.902 227.85 22.1335 228.021 22.4432C228.191 22.7528 228.276 23.1676 228.276 23.6875V28H227.271V27.1136H227.219C227.151 27.2557 227.038 27.4077 226.879 27.5696C226.719 27.7315 226.508 27.8693 226.244 27.983C225.979 28.0966 225.657 28.1534 225.276 28.1534ZM225.43 27.25C225.827 27.25 226.163 27.1719 226.435 27.0156C226.711 26.8594 226.918 26.6577 227.058 26.4105C227.2 26.1634 227.271 25.9034 227.271 25.6307V24.7102C227.228 24.7614 227.134 24.8082 226.989 24.8509C226.847 24.8906 226.683 24.9261 226.495 24.9574C226.31 24.9858 226.13 25.0114 225.954 25.0341C225.781 25.054 225.64 25.071 225.532 25.0852C225.271 25.1193 225.026 25.1747 224.799 25.2514C224.575 25.3253 224.393 25.4375 224.254 25.5881C224.117 25.7358 224.049 25.9375 224.049 26.1932C224.049 26.5426 224.178 26.8068 224.437 26.9858C224.698 27.1619 225.029 27.25 225.43 27.25ZM232.583 28.1364C232.038 28.1364 231.556 27.9986 231.139 27.723C230.721 27.4446 230.395 27.0526 230.159 26.5469C229.923 26.0384 229.805 25.4375 229.805 24.7443C229.805 24.0568 229.923 23.4602 230.159 22.9545C230.395 22.4489 230.723 22.0582 231.143 21.7827C231.564 21.5071 232.049 21.3693 232.6 21.3693C233.027 21.3693 233.363 21.4403 233.61 21.5824C233.86 21.7216 234.051 21.8807 234.181 22.0597C234.315 22.2358 234.419 22.3807 234.493 22.4943H234.578V19.2727H235.583V28H234.612V26.9943H234.493C234.419 27.1136 234.314 27.2642 234.177 27.446C234.041 27.625 233.846 27.7855 233.593 27.9276C233.341 28.0668 233.004 28.1364 232.583 28.1364ZM232.72 27.233C233.123 27.233 233.464 27.1278 233.743 26.9176C234.021 26.7045 234.233 26.4105 234.377 26.0355C234.522 25.6577 234.595 25.2216 234.595 24.7273C234.595 24.2386 234.524 23.8111 234.382 23.4446C234.24 23.0753 234.029 22.7884 233.751 22.5838C233.473 22.3764 233.129 22.2727 232.72 22.2727C232.294 22.2727 231.939 22.3821 231.654 22.6009C231.373 22.8168 231.162 23.1108 231.02 23.483C230.88 23.8523 230.811 24.267 230.811 24.7273C230.811 25.1932 230.882 25.6165 231.024 25.9972C231.169 26.375 231.382 26.6761 231.663 26.9006C231.947 27.1222 232.299 27.233 232.72 27.233ZM237.565 28V21.4545H238.537V22.4432H238.605C238.724 22.1193 238.94 21.8565 239.252 21.6548C239.565 21.4531 239.917 21.3523 240.309 21.3523C240.383 21.3523 240.475 21.3537 240.586 21.3565C240.697 21.3594 240.781 21.3636 240.838 21.3693V22.392C240.804 22.3835 240.725 22.3707 240.603 22.3537C240.484 22.3338 240.358 22.3239 240.224 22.3239C239.906 22.3239 239.622 22.3906 239.372 22.5241C239.125 22.6548 238.929 22.8366 238.784 23.0696C238.642 23.2997 238.571 23.5625 238.571 23.858V28H237.565ZM244.575 28.1364C243.944 28.1364 243.4 27.9972 242.943 27.7188C242.488 27.4375 242.137 27.0455 241.89 26.5426C241.646 26.0369 241.524 25.4489 241.524 24.7784C241.524 24.108 241.646 23.517 241.89 23.0057C242.137 22.4915 242.481 22.0909 242.922 21.804C243.365 21.5142 243.882 21.3693 244.473 21.3693C244.814 21.3693 245.15 21.4261 245.483 21.5398C245.815 21.6534 246.118 21.8381 246.39 22.0938C246.663 22.3466 246.88 22.6818 247.042 23.0994C247.204 23.517 247.285 24.0312 247.285 24.642V25.0682H242.24V24.1989H246.262C246.262 23.8295 246.189 23.5 246.041 23.2102C245.896 22.9205 245.689 22.6918 245.419 22.5241C245.152 22.3565 244.836 22.2727 244.473 22.2727C244.072 22.2727 243.725 22.3722 243.433 22.571C243.143 22.767 242.92 23.0227 242.764 23.3381C242.608 23.6534 242.529 23.9915 242.529 24.3523V24.9318C242.529 25.4261 242.615 25.8452 242.785 26.1889C242.958 26.5298 243.199 26.7898 243.505 26.9688C243.812 27.1449 244.169 27.233 244.575 27.233C244.839 27.233 245.078 27.196 245.291 27.1222C245.507 27.0455 245.693 26.9318 245.849 26.7812C246.005 26.6278 246.126 26.4375 246.211 26.2102L247.183 26.483C247.081 26.8125 246.909 27.1023 246.667 27.3523C246.426 27.5994 246.127 27.7926 245.772 27.9318C245.417 28.0682 245.018 28.1364 244.575 28.1364ZM249.821 19.2727V28H248.815V19.2727H249.821ZM251.663 28V21.4545H252.668V28H251.663ZM252.174 20.3636C251.978 20.3636 251.809 20.2969 251.667 20.1634C251.528 20.0298 251.458 19.8693 251.458 19.6818C251.458 19.4943 251.528 19.3338 251.667 19.2003C251.809 19.0668 251.978 19 252.174 19C252.37 19 252.538 19.0668 252.677 19.2003C252.819 19.3338 252.89 19.4943 252.89 19.6818C252.89 19.8693 252.819 20.0298 252.677 20.1634C252.538 20.2969 252.37 20.3636 252.174 20.3636ZM255.516 24.0625V28H254.51V21.4545H255.482V22.4773H255.567C255.721 22.1449 255.953 21.8778 256.266 21.6761C256.578 21.4716 256.982 21.3693 257.476 21.3693C257.919 21.3693 258.307 21.4602 258.64 21.642C258.972 21.821 259.23 22.0938 259.415 22.4602C259.6 22.8239 259.692 23.2841 259.692 23.8409V28H258.686V23.9091C258.686 23.3949 258.553 22.9943 258.286 22.7074C258.019 22.4176 257.652 22.2727 257.186 22.2727C256.865 22.2727 256.578 22.3423 256.326 22.4815C256.076 22.6207 255.878 22.8239 255.733 23.0909C255.588 23.358 255.516 23.6818 255.516 24.0625ZM264.172 30.5909C263.686 30.5909 263.268 30.5284 262.919 30.4034C262.57 30.2812 262.278 30.1193 262.045 29.9176C261.815 29.7188 261.632 29.5057 261.496 29.2784L262.297 28.7159C262.388 28.8352 262.503 28.9716 262.642 29.125C262.781 29.2812 262.972 29.4162 263.213 29.5298C263.457 29.6463 263.777 29.7045 264.172 29.7045C264.7 29.7045 265.136 29.5767 265.48 29.321C265.824 29.0653 265.996 28.6648 265.996 28.1193V26.7898H265.911C265.837 26.9091 265.732 27.0568 265.595 27.233C265.462 27.4062 265.268 27.5611 265.016 27.6974C264.766 27.831 264.428 27.8977 264.001 27.8977C263.473 27.8977 262.999 27.7727 262.578 27.5227C262.161 27.2727 261.83 26.9091 261.585 26.4318C261.344 25.9545 261.223 25.375 261.223 24.6932C261.223 24.0227 261.341 23.4389 261.577 22.9418C261.813 22.4418 262.141 22.0554 262.561 21.7827C262.982 21.5071 263.467 21.3693 264.018 21.3693C264.445 21.3693 264.783 21.4403 265.033 21.5824C265.286 21.7216 265.479 21.8807 265.612 22.0597C265.749 22.2358 265.854 22.3807 265.928 22.4943H266.03V21.4545H267.001V28.1875C267.001 28.75 266.874 29.2074 266.618 29.5597C266.365 29.9148 266.024 30.1747 265.595 30.3395C265.169 30.5071 264.695 30.5909 264.172 30.5909ZM264.138 26.9943C264.541 26.9943 264.882 26.902 265.161 26.7173C265.439 26.5327 265.651 26.267 265.795 25.9205C265.94 25.5739 266.013 25.1591 266.013 24.6761C266.013 24.2045 265.942 23.7884 265.8 23.4276C265.658 23.0668 265.447 22.7841 265.169 22.5795C264.891 22.375 264.547 22.2727 264.138 22.2727C263.712 22.2727 263.357 22.3807 263.072 22.5966C262.791 22.8125 262.58 23.1023 262.438 23.4659C262.298 23.8295 262.229 24.233 262.229 24.6761C262.229 25.1307 262.3 25.5327 262.442 25.8821C262.587 26.2287 262.8 26.5014 263.081 26.7003C263.365 26.8963 263.717 26.9943 264.138 26.9943ZM272.967 25.3239V21.4545H273.973V28H272.967V26.892H272.899C272.746 27.2244 272.507 27.5071 272.183 27.7401C271.859 27.9702 271.45 28.0852 270.956 28.0852C270.547 28.0852 270.183 27.9957 269.865 27.8168C269.547 27.6349 269.297 27.3622 269.115 26.9986C268.933 26.6321 268.842 26.1705 268.842 25.6136V21.4545H269.848V25.5455C269.848 26.0227 269.982 26.4034 270.249 26.6875C270.518 26.9716 270.862 27.1136 271.28 27.1136C271.53 27.1136 271.784 27.0497 272.043 26.9219C272.304 26.794 272.523 26.598 272.699 26.3338C272.878 26.0696 272.967 25.733 272.967 25.3239ZM277.741 28.1534C277.326 28.1534 276.95 28.0753 276.612 27.919C276.274 27.7599 276.005 27.5312 275.806 27.233C275.608 26.9318 275.508 26.5682 275.508 26.142C275.508 25.767 275.582 25.4631 275.73 25.2301C275.877 24.9943 276.075 24.8097 276.322 24.6761C276.569 24.5426 276.842 24.4432 277.14 24.3778C277.441 24.3097 277.744 24.2557 278.048 24.2159C278.446 24.1648 278.768 24.1264 279.015 24.1009C279.265 24.0724 279.447 24.0256 279.561 23.9602C279.677 23.8949 279.735 23.7812 279.735 23.6193V23.5852C279.735 23.1648 279.62 22.8381 279.39 22.6051C279.163 22.3722 278.818 22.2557 278.355 22.2557C277.875 22.2557 277.498 22.3608 277.225 22.571C276.953 22.7812 276.761 23.0057 276.65 23.2443L275.696 22.9034C275.866 22.5057 276.093 22.196 276.377 21.9744C276.664 21.75 276.977 21.5937 277.315 21.5057C277.656 21.4148 277.991 21.3693 278.321 21.3693C278.531 21.3693 278.772 21.3949 279.045 21.446C279.321 21.4943 279.586 21.5952 279.842 21.7486C280.1 21.902 280.315 22.1335 280.485 22.4432C280.656 22.7528 280.741 23.1676 280.741 23.6875V28H279.735V27.1136H279.684C279.616 27.2557 279.502 27.4077 279.343 27.5696C279.184 27.7315 278.973 27.8693 278.708 27.983C278.444 28.0966 278.122 28.1534 277.741 28.1534ZM277.895 27.25C278.292 27.25 278.627 27.1719 278.9 27.0156C279.176 26.8594 279.383 26.6577 279.522 26.4105C279.664 26.1634 279.735 25.9034 279.735 25.6307V24.7102C279.693 24.7614 279.599 24.8082 279.454 24.8509C279.312 24.8906 279.147 24.9261 278.96 24.9574C278.775 24.9858 278.595 25.0114 278.419 25.0341C278.245 25.054 278.105 25.071 277.997 25.0852C277.735 25.1193 277.491 25.1747 277.264 25.2514C277.039 25.3253 276.858 25.4375 276.718 25.5881C276.582 25.7358 276.514 25.9375 276.514 26.1932C276.514 26.5426 276.643 26.8068 276.902 26.9858C277.163 27.1619 277.494 27.25 277.895 27.25Z" fill="white"/>
<defs>
<linearGradient id="paint0_linear_213_357" x1="8" y1="8.00005" x2="274" y2="8.00016" gradientUnits="userSpaceOnUse">
<stop stop-color="#D24E50"/>
<stop offset="1" stop-color="#3CD397"/>
</linearGradient>
</defs>
</svg>
